<?xml version="1.0" standalone="no"?>
<!DOCTYPE svg PUBLIC "-//W3C//DTD SVG 20010904//EN"
 "http://www.w3.org/TR/2001/REC-SVG-20010904/DTD/svg10.dtd">
<svg version="1.0" xmlns="http://www.w3.org/2000/svg"
 width="282.000000pt" height="282.000000pt" viewBox="0 0 282.000000 282.000000"
 preserveAspectRatio="xMidYMid meet">
<metadata>
Created by potrace 1.14, written by Peter Selinger 2001-2017
</metadata>
<g transform="translate(0.000000,282.000000) scale(0.100000,-0.100000)"
fill="#000000" stroke="none">
<path d="M11 2810 c-4 -3 -7 -632 -7 -1399 1 -1308 2 -1394 18 -1405 13 -8 21
-7 29 1 10 10 8 12 -8 8 -12 -2 -23 2 -25 8 -2 7 -4 635 -4 1397 l1 1385 1395
0 1395 0 0 -92 c0 -50 3 -90 6 -87 5 2 5 160 0 184 -1 7 -2790 7 -2800 0z"/>
<path d="M1235 2654 c-165 -35 -303 -111 -426 -233 -102 -103 -166 -206 -211
-341 -28 -86 -31 -109 -34 -240 -3 -163 17 -284 75 -458 31 -93 138 -339 150
-346 3 -2 6 28 7 67 1 169 48 298 215 593 135 237 191 395 191 534 l0 75 70
-75 c121 -130 237 -320 292 -480 43 -123 56 -212 52 -352 l-3 -127 42 35 c79
64 133 169 137 264 2 26 6 46 10 44 16 -10 131 -170 152 -213 25 -49 62 -156
71 -206 3 -16 6 -59 6 -95 l0 -65 31 60 c66 128 153 370 173 480 36 201 32
364 -15 505 -94 287 -312 491 -605 565 -104 27 -279 31 -380 9z"/>
<path d="M2805 2456 c0 -85 2 -152 5 -149 7 7 7 303 0 303 -3 0 -6 -69 -5
-154z"/>
<path d="M2805 2136 c0 -85 2 -152 5 -149 7 7 7 303 0 303 -3 0 -6 -69 -5
-154z"/>
<path d="M2805 1816 c0 -85 2 -152 5 -149 7 7 7 303 0 303 -3 0 -6 -69 -5
-154z"/>
<path d="M2805 1496 c0 -85 2 -152 5 -149 7 7 7 303 0 303 -3 0 -6 -69 -5
-154z"/>
<path d="M1282 1503 c-23 -63 -63 -142 -169 -333 -141 -256 -153 -351 -66
-525 57 -113 204 -314 332 -455 l41 -45 63 65 c146 151 259 298 306 401 33 73
50 135 32 125 -6 -4 -11 -12 -11 -17 0 -6 -12 -26 -27 -45 -114 -150 -372
-162 -498 -22 -77 85 -117 221 -96 325 7 32 14 69 17 83 3 14 18 77 34 140 57
223 82 360 68 360 -3 0 -15 -26 -26 -57z"/>
<path d="M2805 1176 c0 -85 2 -152 5 -149 7 7 7 303 0 303 -3 0 -6 -69 -5
-154z"/>
<path d="M2805 856 c0 -85 2 -152 5 -149 7 7 7 303 0 303 -3 0 -6 -69 -5 -154z"/>
<path d="M2805 368 c1 -178 -2 -330 -6 -338 -6 -12 -30 -15 -122 -15 -64 0
-114 -2 -111 -5 7 -6 244 -7 245 0 5 17 3 680 -1 680 -3 0 -5 -145 -5 -322z"/>
<path d="M70 10 c0 -3 342 -5 760 -5 418 0 760 2 760 5 0 3 -342 5 -760 5
-418 0 -760 -2 -760 -5z"/>
<path d="M1607 10 c6 -7 943 -7 943 0 0 3 -213 5 -474 5 -261 0 -472 -2 -469
-5z"/>
</g>
</svg>
